<?xml version="1.0" standalone="no"?>
<!DOCTYPE svg PUBLIC "-//W3C//DTD SVG 20010904//EN"
 "http://www.w3.org/TR/2001/REC-SVG-20010904/DTD/svg10.dtd">
<svg version="1.0" xmlns="http://www.w3.org/2000/svg"
 width="700.000000pt" height="700.000000pt" viewBox="0 0 700.000000 700.000000"
 preserveAspectRatio="xMidYMid meet">
<metadata>
Created by potrace 1.11, written by Peter Selinger 2001-2013
</metadata>
<g transform="translate(0.000000,700.000000) scale(0.100000,-0.100000)"
fill="#000000" stroke="none">
<path d="M1505 6990 c-401 -29 -753 -190 -1032 -472 -245 -247 -387 -529 -451
-893 -16 -93 -17 -245 -17 -2125 0 -1880 1 -2032 17 -2125 65 -368 211 -656
460 -902 247 -245 529 -387 893 -451 93 -16 245 -17 2125 -17 2226 0 2082 -4
2315 59 540 146 975 581 1121 1121 63 233 59 89 59 2315 0 2226 4 2082 -59
2315 -146 541 -583 977 -1123 1121 -230 62 -81 58 -2238 60 -1083 0 -2015 -2
-2070 -6z m2860 -800 c302 -14 511 -42 715 -97 544 -146 874 -456 989 -929 43
-177 53 -269 53 -474 0 -316 -46 -529 -163 -763 -201 -400 -620 -669 -1192
-766 -205 -35 -341 -41 -959 -41 l-618 0 0 -1160 0 -1160 -190 0 -190 0 0
2700 0 2700 668 0 c367 0 766 -5 887 -10z m-2630 -1658 c169 -53 292 -189 315
-350 33 -236 -108 -429 -357 -488 -80 -19 -219 -14 -298 10 -139 42 -255 153
-295 282 -73 237 60 478 300 544 96 27 252 28 335 2z m275 -2447 l0 -1275
-440 0 -440 0 0 1275 0 1275 440 0 440 0 0 -1275z"/>
<path d="M3190 4655 l0 -1217 598 5 c683 6 820 16 1082 83 417 108 681 333
793 679 53 164 62 231 62 485 0 254 -9 325 -62 480 -115 338 -382 544 -824
634 -263 53 -346 59 -1021 63 l-628 5 0 -1217z"/>
</g>
</svg>
