<?xml version="1.0" encoding="UTF-8" standalone="no"?>
<!-- Created with Inkscape (http://www.inkscape.org/) -->

<svg
   xmlns:dc="http://purl.org/dc/elements/1.1/"
   xmlns:cc="http://creativecommons.org/ns#"
   xmlns:rdf="http://www.w3.org/1999/02/22-rdf-syntax-ns#"
   xmlns:svg="http://www.w3.org/2000/svg"
   xmlns="http://www.w3.org/2000/svg"
   xmlns:sodipodi="http://sodipodi.sourceforge.net/DTD/sodipodi-0.dtd"
   xmlns:inkscape="http://www.inkscape.org/namespaces/inkscape"
   width="260px"
   height="260px"
   viewBox="0 0 260 260"
   version="1.1"
   id="SVGRoot"
   inkscape:version="0.92.1 r15371"
   sodipodi:docname="titre-carre-windows.svg">
  <sodipodi:namedview
     id="base"
     pagecolor="#ffffff"
     bordercolor="#666666"
     borderopacity="1.0"
     inkscape:pageopacity="0.0"
     inkscape:pageshadow="2"
     inkscape:zoom="1.9692308"
     inkscape:cx="138.63281"
     inkscape:cy="130"
     inkscape:document-units="px"
     inkscape:current-layer="layer1"
     showgrid="false"
     inkscape:window-width="1920"
     inkscape:window-height="1056"
     inkscape:window-x="0"
     inkscape:window-y="24"
     inkscape:window-maximized="1"
     inkscape:pagecheckerboard="true" />
  <defs
     id="defs5074" />
  <metadata
     id="metadata5077">
    <rdf:RDF>
      <cc:Work
         rdf:about="">
        <dc:format>image/svg+xml</dc:format>
        <dc:type
           rdf:resource="http://purl.org/dc/dcmitype/StillImage" />
        <dc:title></dc:title>
      </cc:Work>
    </rdf:RDF>
  </metadata>
  <g
     id="layer1"
     inkscape:groupmode="layer"
     inkscape:label="Calque 1">
    <g
       id="g5693"
       transform="matrix(1.3145336,0,0,1.3145384,-40.889882,-104.22714)">
      <path
         inkscape:connector-curvature="0"
         id="path4532"
         style="font-style:normal;font-variant:normal;font-weight:normal;font-stretch:normal;font-size:39.98827362px;line-height:1.25;font-family:'Source Sans Pro';-inkscape-font-specification:'Source Sans Pro';letter-spacing:149.95602417px;word-spacing:0px;fill:#ffffff;fill-opacity:1;stroke:none;stroke-width:1.34343779"
         d="m 31.106,196.21229 h 2.636771 v -16.22125 h 7.10782 c 8.426205,0 13.470464,-3.61109 13.470464,-11.00523 0,-7.79537 -5.158902,-10.54668 -13.699749,-10.54668 H 31.106 Z m 2.636771,-18.45668 v -17.08104 h 6.248003 c 7.795673,0 11.636188,1.94885 11.636188,8.31124 0,6.19045 -3.725873,8.7698 -11.406904,8.7698 z" />
      <path
         inkscape:connector-curvature="0"
         id="path4534"
         style="font-style:normal;font-variant:normal;font-weight:normal;font-stretch:normal;font-size:39.98827362px;line-height:1.25;font-family:'Source Sans Pro';-inkscape-font-specification:'Source Sans Pro';letter-spacing:149.95602417px;word-spacing:0px;fill:#ffffff;fill-opacity:1;stroke:none;stroke-width:1.34343779"
         d="m 60.935373,196.21229 h 2.522135 v -20.74944 c 3.381942,-3.43913 5.732113,-5.1587 8.999413,-5.1587 4.47105,0 6.30533,2.75131 6.30533,8.59783 v 17.31031 h 2.52212 v -17.65422 c 0,-7.10754 -2.63676,-10.54668 -8.31156,-10.54668 -3.78319,0 -6.64925,2.1208 -9.515303,4.98675 V 155 h -2.522135 z" />
      <path
         inkscape:connector-curvature="0"
         id="path4536"
         style="font-style:normal;font-variant:normal;font-weight:normal;font-stretch:normal;font-size:95.97185516px;line-height:1.25;font-family:'Rouge Script';-inkscape-font-specification:'Rouge Script';letter-spacing:149.95602417px;word-spacing:0px;fill:#4ad133;fill-opacity:1;stroke:none;stroke-width:1.34343779"
         d="m 84.724721,225 q -6.53461,0 -6.53461,-6.67192 0,-3.92062 2.95777,-8.46027 4.26469,-6.67192 11.41836,-8.80419 2.54507,-0.75661 5.29648,-0.75661 0.48149,0 0.48149,0.96296 0,0.96296 -0.48149,0.96296 -8.11668,0 -13.6195,6.39679 -4.05834,4.81479 -4.05834,9.28566 0,4.47088 3.43927,5.1587 l 1.10057,0.0688 q 5.70918,0 9.14844,-4.81478 2.4075,-3.43914 3.57684,-7.01584 1.23814,-3.50792 1.78843,-5.64018 0.61906,-2.13226 1.375699,-5.64018 0.75664,-3.43913 1.16935,-5.84653 0.4815,-2.40739 1.30693,-6.87827 0.8942,-4.53965 1.3757,-7.1534 h -0.41271 q -8.323019,17.40202 -13.688289,17.40202 -4.60861,0 -4.60861,-5.98409 0,-4.33331 3.7144,-17.26445 0.82543,-2.95766 1.23814,-4.4021 0.41271,-1.51321 1.30692,-1.51321 1.23814,0 1.78843,1.78834 0.27514,0.75661 0.27514,1.92592 0,1.10052 -0.34393,2.47618 -0.34393,1.30687 -1.4445,5.08992 -2.95776,10.17983 -2.95776,13.68775 0,2.26983 1.3757,2.26983 1.65085,0 4.05834,-3.09522 2.47627,-3.09522 4.81497,-7.5661 4.264689,-8.11636 6.947319,-15.13219 0.55028,-1.44443 1.37571,-1.44443 1.16935,0 1.71963,1.78834 0.27515,0.96296 0.27515,2.13227 0,1.1693 -1.16936,6.7407 -1.10056,5.5714 -2.26992,10.66132 -1.10056,5.08992 -2.95777,11.96819 -1.78841,6.87826 -3.43926,10.24861 -1.582069,3.37036 -3.920769,6.87827 -2.26992,3.50792 -5.09011,4.81479 Q 88.232771,225 84.724721,225 Z" />
      <path
         inkscape:connector-curvature="0"
         id="path4538"
         style="font-style:normal;font-variant:normal;font-weight:normal;font-stretch:normal;font-size:39.98827362px;line-height:1.25;font-family:'Source Sans Pro';-inkscape-font-specification:'Source Sans Pro';letter-spacing:149.95602417px;word-spacing:0px;fill:#ffffff;fill-opacity:1;stroke:none;stroke-width:1.34343779"
         d="m 122.83458,196.90012 c 5.96139,0 9.28602,-3.61109 9.28602,-7.73805 0,-5.38798 -4.70034,-6.82095 -8.99942,-8.42588 -3.2673,-1.2037 -6.47729,-2.40739 -6.47729,-5.55993 0,-2.52204 1.94892,-4.98675 6.19069,-4.98675 2.80873,0 4.75765,1.08906 6.59193,2.46471 l 1.3757,-1.77688 c -2.00624,-1.66225 -4.92962,-2.86595 -7.85299,-2.86595 -5.73212,0 -8.88477,3.3245 -8.88477,7.33682 0,4.70015 4.58569,6.3624 8.77013,7.85269 3.15265,1.14638 6.70657,2.63667 6.70657,6.07581 0,2.92326 -2.23553,5.44529 -6.53461,5.44529 -3.95516,0 -6.41997,-1.54761 -8.77013,-3.49645 l -1.49035,1.89152 c 2.46481,2.06348 6.01872,3.78305 10.08852,3.78305 z" />
      <path
         inkscape:connector-curvature="0"
         id="path4540"
         style="font-style:normal;font-variant:normal;font-weight:normal;font-stretch:normal;font-size:39.98827362px;line-height:1.25;font-family:'Source Sans Pro';-inkscape-font-specification:'Source Sans Pro';letter-spacing:149.95602417px;word-spacing:0px;fill:#ffffff;fill-opacity:1;stroke:none;stroke-width:1.34343779"
         d="m 138.01662,196.21229 h 2.52213 v -27.51307 h -2.52213 z m 1.31838,-34.16206 c 1.26107,0 2.29285,-0.91711 2.29285,-2.23544 0,-1.43298 -1.03178,-2.29276 -2.29285,-2.29276 -1.26106,0 -2.29284,0.85978 -2.29284,2.29276 0,1.31833 1.03178,2.23544 2.29284,2.23544 z" />
      <path
         inkscape:connector-curvature="0"
         id="path4542"
         style="font-style:normal;font-variant:normal;font-weight:normal;font-stretch:normal;font-size:39.98827362px;line-height:1.25;font-family:'Source Sans Pro';-inkscape-font-specification:'Source Sans Pro';letter-spacing:149.95602417px;word-spacing:0px;fill:#ffffff;fill-opacity:1;stroke:none;stroke-width:1.34343779"
         d="m 167.8854,208.6505 h 2.52213 v -39.95128 h -2.12088 l -0.28661,2.52203 h -0.11464 c -2.57945,-2.00616 -4.8723,-3.20986 -8.19692,-3.20986 -6.53461,0 -12.20939,5.61726 -12.20939,14.50169 0,9.28566 4.47104,14.38704 11.40689,14.38704 3.61123,0 6.64926,-1.94884 9.11406,-4.29892 l -0.11464,5.4453 z m -8.65549,-13.98582 c -5.84676,0 -9.05674,-4.8721 -9.05674,-12.1516 0,-6.93559 4.18444,-12.26625 9.68727,-12.26625 2.69409,0 5.10158,0.97442 8.02496,3.55377 v 16.33589 c -2.92338,2.92326 -5.61747,4.52819 -8.65549,4.52819 z" />
      <path
         inkscape:connector-curvature="0"
         id="path4544"
         style="font-style:normal;font-variant:normal;font-weight:normal;font-stretch:normal;font-size:39.98827362px;line-height:1.25;font-family:'Source Sans Pro';-inkscape-font-specification:'Source Sans Pro';letter-spacing:149.95602417px;word-spacing:0px;fill:#ffffff;fill-opacity:1;stroke:none;stroke-width:1.34343779"
         d="m 187.5743,196.90012 c 3.78319,0 6.64925,-2.1208 9.34334,-5.27334 h 0.11464 l 0.28661,4.58551 h 2.12088 v -27.51307 h -2.52213 v 20.29089 c -3.20998,3.89769 -5.61747,5.61726 -8.88477,5.61726 -4.41373,0 -6.248,-2.75131 -6.248,-8.59784 v -17.31031 h -2.52213 v 17.65422 c 0,7.10755 2.63677,10.54668 8.31156,10.54668 z" />
      <path
         inkscape:connector-curvature="0"
         id="path4546"
         style="font-style:normal;font-variant:normal;font-weight:normal;font-stretch:normal;font-size:39.98827362px;line-height:1.25;font-family:'Source Sans Pro';-inkscape-font-specification:'Source Sans Pro';letter-spacing:149.95602417px;word-spacing:0px;fill:#ffffff;fill-opacity:1;stroke:none;stroke-width:1.34343779"
         d="m 219.09287,196.90012 c 4.01248,0 6.47729,-1.37565 8.65549,-2.69399 l -1.03179,-1.94884 c -2.06355,1.49029 -4.41372,2.46471 -7.39442,2.46471 -6.19068,0 -10.26048,-4.98674 -10.37512,-11.92233 h 19.83311 c 0.11464,-0.68783 0.11464,-1.37565 0.11464,-2.06348 0,-8.08197 -4.01248,-12.7248 -10.54709,-12.7248 -6.13336,0 -11.98011,5.50262 -11.98011,14.50169 0,8.99906 5.67479,14.38704 12.72529,14.38704 z m -10.14584,-16.16393 c 0.57321,-6.59167 4.75765,-10.54668 9.45798,-10.54668 4.92962,0 8.08228,3.49645 8.08228,10.54668 z" />
    </g>
    <g
       id="g5735"
       transform="matrix(1.3145336,0,0,1.3145384,-37.023576,-104.22714)">
      <path
         inkscape:connector-curvature="0"
         id="path4524"
         style="font-style:normal;font-variant:normal;font-weight:900;font-stretch:normal;font-size:39.98827362px;line-height:1.25;font-family:'Source Sans Pro';-inkscape-font-specification:'Source Sans Pro Heavy';letter-spacing:-1.49956024px;word-spacing:0px;fill:#0075ed;fill-opacity:1;stroke:none;stroke-width:1.34343779"
         d="m 169.48306,157.65914 h 6.16202 v -17.91216 h -6.16202 z m 3.08101,-20.13327 c 2.00624,0 3.43927,-1.28967 3.43927,-3.08089 0,-1.79121 -1.43303,-3.08089 -3.43927,-3.08089 -2.00624,0 -3.43927,1.28968 -3.43927,3.08089 0,1.79122 1.43303,3.08089 3.43927,3.08089 z" />
      <path
         inkscape:connector-curvature="0"
         id="path4526"
         style="font-style:normal;font-variant:normal;font-weight:900;font-stretch:normal;font-size:39.98827362px;line-height:1.25;font-family:'Source Sans Pro';-inkscape-font-specification:'Source Sans Pro Heavy';letter-spacing:-1.49956024px;word-spacing:0px;fill:#0075ed;fill-opacity:1;stroke:none;stroke-width:1.34343779"
         d="m 178.42549,157.65914 h 6.16202 v -11.75038 c 0.93147,-0.85978 1.57633,-1.36132 2.72276,-1.36132 1.21807,0 1.79128,0.57319 1.79128,2.86595 v 10.24575 h 6.16202 v -11.03389 c 0,-4.44221 -1.64798,-7.30816 -5.58881,-7.30816 -2.43615,0 -4.22743,1.21803 -5.66046,2.57935 h -0.1433 l -0.42991,-2.14946 h -5.0156 z" />
      <path
         inkscape:connector-curvature="0"
         id="path4528"
         style="font-style:normal;font-variant:normal;font-weight:900;font-stretch:normal;font-size:39.98827362px;line-height:1.25;font-family:'Source Sans Pro';-inkscape-font-specification:'Source Sans Pro Heavy';letter-spacing:-1.49956024px;word-spacing:0px;fill:#0075ed;fill-opacity:1;stroke:none;stroke-width:1.34343779"
         d="m 199.00848,157.65914 h 6.16202 v -13.1117 h 3.00936 v -4.80046 h -3.00936 v -0.42989 c 0,-1.68374 0.71651,-2.22111 1.86293,-2.22111 0.57321,0 1.21808,0.1433 1.79129,0.35825 l 1.07477,-4.51387 c -0.78817,-0.28659 -2.14954,-0.64483 -3.79753,-0.64483 -5.3022,0 -7.09348,3.40331 -7.09348,7.23651 v 0.25077 l -2.3645,0.17912 v 4.58551 h 2.3645 z" />
      <path
         inkscape:connector-curvature="0"
         id="path4530"
         style="font-style:normal;font-variant:normal;font-weight:900;font-stretch:normal;font-size:39.98827362px;line-height:1.25;font-family:'Source Sans Pro';-inkscape-font-specification:'Source Sans Pro Heavy';letter-spacing:-1.49956024px;word-spacing:0px;fill:#0075ed;fill-opacity:1;stroke:none;stroke-width:1.34343779"
         d="m 217.06855,158.08903 c 4.58569,0 8.88477,-3.43913 8.88477,-9.38597 0,-5.94684 -4.29908,-9.38597 -8.88477,-9.38597 -4.58569,0 -8.88477,3.43913 -8.88477,9.38597 0,5.94684 4.29908,9.38597 8.88477,9.38597 z m 0,-4.94375 c -1.86294,0 -2.57945,-1.71957 -2.57945,-4.44222 0,-2.72265 0.71651,-4.44221 2.57945,-4.44221 1.86294,0 2.57945,1.71956 2.57945,4.44221 0,2.72265 -0.71651,4.44222 -2.57945,4.44222 z" />
    </g>
  </g>
</svg>
